<svg xmlns="http://www.w3.org/2000/svg" viewBox="0 0 200 200" width="200" height="200">
  <!-- Buildings -->
  <g id="buildings">
    <rect x="40" y="80" width="30" height="70" fill="#0056b3" rx="3"/>
    <circle cx="48" cy="95" r="3" fill="#fff"/>
    <circle cx="62" cy="95" r="3" fill="#fff"/>
    <circle cx="48" cy="110" r="3" fill="#fff"/>
    <circle cx="62" cy="110" r="3" fill="#fff"/>
    
    <rect x="60" y="60" width="35" height="90" fill="#1e90ff" rx="3"/>
    <circle cx="71" cy="75" r="3" fill="#fff"/>
    <circle cx="84" cy="75" r="3" fill="#fff"/>
    <circle cx="71" cy="92" r="3" fill="#fff"/>
    <circle cx="84" cy="92" r="3" fill="#fff"/>
    
    <rect x="78" y="75" width="28" height="75" fill="#0078d4" rx="3"/>
  </g>
  
  <!-- Circuit paths -->
  <g id="circuits" stroke="#7ac943" stroke-width="2" fill="none" stroke-linecap="round" stroke-linejoin="round">
    <path d="M 35 120 Q 25 125 20 135"/>
    <circle cx="20" cy="135" r="3" fill="#7ac943"/>
    
    <path d="M 30 140 Q 20 145 15 155"/>
    <circle cx="15" cy="155" r="3" fill="#7ac943"/>
    
    <path d="M 102 140 L 115 140 L 115 155"/>
    <circle cx="115" cy="155" r="3" fill="#7ac943"/>
  </g>
  
  <!-- Blue circuit lines -->
  <g id="circuits-blue" stroke="#1e90ff" stroke-width="2" fill="none" stroke-linecap="round" stroke-linejoin="round">
    <path d="M 85 160 L 100 160 L 100 140"/>
    <circle cx="100" cy="140" r="3" fill="#1e90ff"/>
    
    <path d="M 110 145 L 120 145 L 120 155"/>
    <circle cx="120" cy="155" r="3" fill="#1e90ff"/>
  </g>
  
  <!-- Location pin with checkmark -->
  <g id="location-pin">
    <circle cx="140" cy="85" r="25" fill="#ff9500"/>
    <path d="M 130 85 L 138 93 L 150 77" stroke="#fff" stroke-width="4" fill="none" stroke-linecap="round" stroke-linejoin="round"/>
  </g>
</svg>